<svg xmlns="http://www.w3.org/2000/svg" xmlns:xlink="http://www.w3.org/1999/xlink" width="370" height="550" version="1.1" viewBox="0 0 370 550"><title>mountain</title><desc>Created with Sketch.</desc><defs><linearGradient id="linearGradient-1" x1="50%" x2="50%" y1="0%" y2="100%"><stop offset="0%" stop-color="#B0D5CF"/><stop offset="100%" stop-color="#6EC5B6"/></linearGradient><rect id="path-2" width="370" height="350" x="0" y="0"/></defs><g id="Authenticator-New-fonts" fill="none" fill-rule="evenodd" stroke="none" stroke-width="1"><g id="Start"><g id="Mountain"><rect id="Rectangle-Copy" width="370" height="550" x="0" y="0" fill="url(#linearGradient-1)"/><g id="Group-Copy" stroke-width="1" transform="translate(0.000000, 200.000000)"><mask id="mask-3" fill="#fff"><use xlink:href="#path-2"/></mask><g mask="url(#mask-3)" opacity=".312"><g transform="translate(-3.000000, -4.000000)"><polygon id="Fill-1" fill="#AFE7DE" points="346.274 66.577 314.704 96.214 269.087 79.272 252.426 90.379 233.118 58.094 205.519 102.561 174.352 69.751 142.77 93.028 121.723 75.036 41.899 122.664 .007 393.387 375.007 393.387 375.007 45.387"/><polygon id="Fill-2" fill="#5FCAB8" points="232.014 126.879 205.514 101.937 175.805 70.221 178.946 122.459 142.775 92.383 121.716 74.353 130.927 102.651 41.9 130.334 .007 393.387 375.007 393.387 361.196 131.286 314.702 95.576 269.095 78.598 267.277 113.657 252.423 89.742 233.114 57.387"/><path id="Fill-3" fill="#3AC4AB" d="M0.1580288,99.4975117 L84.7874949,50.2853545 C84.7874949,50.2853545 167.108171,180.193456 207.030057,175.708265 C240.294559,171.960195 308.583175,66.9392782 308.583175,66.9392782 L374.76474,99.4975117 L374.61904,392.421664 L0.00112077163,392.421664 L0.1580288,99.4975117 Z"/><path id="Fill-6" fill="#05A588" d="M0.00560385817,8.81072992e-13 C11.1796971,20.102148 110.199871,196.873616 180.304137,206.406207 C250.408402,215.926304 353.799586,77.2727068 359.941414,68.8020689 C368.705848,75.1488006 374.769223,77.2727068 374.769223,77.2727068 L374.612315,392.422914 L0.00560385817,392.422914 L0.00560385817,8.81072992e-13 Z"/><path id="Fill-9" fill="#008C73" d="M374.763619,137.60039 C359.498709,145.546298 271.428474,215.372839 196.516098,218.558699 C121.592515,221.744558 11.8353485,142.360439 -5.68434189e-14,137.60039 L-5.68434189e-14,392.419166 L374.617919,392.419166 L374.763619,137.60039 Z"/><path id="Fill-12" fill="#05A588" d="M343.728332,324.955158 L374.616798,301.229875 L291.152934,282.077238 L336.241577,272.944442 L336.23037,272.944442 L272.749864,251.905276 L283.184248,243.33469 L283.17304,243.33469 L226.742189,237.62513 L239.328454,226.51835 C239.328454,226.51835 239.328454,226.505856 239.328454,226.505856 L200.448886,226.505856 L212.732543,220.396502 C205.156127,219.19712 197.882319,218.559948 190.989573,218.559948 C181.070744,218.559948 170.322544,219.89676 159.069997,222.308018 L154.29551,223.407452 C153.914448,223.494907 153.533385,223.594855 153.152323,223.68231 L164.304001,234.451764 L109.531891,238.549654 C109.520683,238.549654 109.520683,238.562147 109.520683,238.562147 L116.334975,245.571038 L74.9897093,255.403475 L91.1288208,265.011027 L46.0513857,272.744544 L46.040178,272.744544 L46.040178,286.849781 L18.379534,292.421911 L46.040178,321.769298 L0.0100869447,328.091043 L0.0100869447,339.210317 L27.7491849,361.473851 L0.0100869447,367.595699 L0.0100869447,392.420415 L374.616798,392.420415 L374.616798,336.486719 L343.728332,324.955158 Z"/><path id="Fill-14" fill="#5FCAB8" d="M121.588032,392.425412 C121.588032,392.425412 181.672599,365.326867 175.620432,341.151817 C169.568265,316.976766 77.9900149,314.290649 93.1092243,284.256116 C106.054137,258.531864 146.839016,235.756092 187.45578,236.967968 C215.721641,237.792544 179.173278,224.786741 157.51997,214.179704 C169.568265,213.667467 174.286714,205.946444 180.305257,206.396212 C185.98757,206.84598 199.100598,205.734053 199.100598,205.734053 C199.100598,205.734053 171.238215,218.340061 193.227754,218.44001 C219.296903,218.564945 237.789635,250.473513 209.658267,250.298603 C190.425825,250.198655 104.070371,294.013592 219.050333,303.421247 C325.792623,312.141756 295.419712,367.888048 276.030363,392.425412 L121.588032,392.425412 Z"/></g></g></g></g></g></g></svg>